<svg width="177" height="56" viewBox="0 0 177 56" fill="none" xmlns="http://www.w3.org/2000/svg">
<path d="M0 17.5C0 7.83503 7.88299 0 17.6072 0H36.975C46.6992 0 54.5822 7.83503 54.5822 17.5V38.5C54.5822 48.165 46.6992 56.0001 36.975 56.0001H17.6072C7.88299 56.0001 0 48.165 0 38.5V17.5Z" fill="#4369EF"/>
<path d="M62.4641 39.0879C62.4641 38.1446 62.7805 37.3789 63.4132 36.791C64.0598 36.2032 64.8645 35.9092 65.8274 35.9092C66.804 35.9092 67.6087 36.2032 68.2415 36.791C68.888 37.3789 69.2112 38.1446 69.2112 39.0879C69.2112 40.0176 68.8948 40.7764 68.2621 41.3643C67.6293 41.9385 66.8178 42.2256 65.8274 42.2256C64.8507 42.2256 64.046 41.9385 63.4132 41.3643C62.7805 40.7764 62.4641 40.0176 62.4641 39.0879Z" fill="black"/>
<path d="M73.5236 30.7002C73.5236 28.499 73.95 26.5371 74.8029 24.8145C75.6557 23.0918 76.88 21.7588 78.4756 20.8154C80.085 19.8721 81.9489 19.4004 84.0673 19.4004C87.0797 19.4004 89.5351 20.3164 91.4334 22.1485C93.3454 23.9805 94.4115 26.4688 94.6315 29.6133L94.6728 31.1309C94.6728 34.5352 93.7168 37.2696 91.8048 39.334C89.8927 41.3848 87.3273 42.4102 84.1085 42.4102C80.8897 42.4102 78.3174 41.3848 76.3916 39.334C74.4796 37.2832 73.5236 34.4942 73.5236 30.9668V30.7002ZM79.4866 31.1309C79.4866 33.2364 79.8856 34.8496 80.6834 35.9707C81.4812 37.0782 82.6229 37.6319 84.1085 37.6319C85.5529 37.6319 86.6808 37.085 87.4924 35.9912C88.304 34.8838 88.7098 33.1201 88.7098 30.7002C88.7098 28.6358 88.304 27.0362 87.4924 25.9014C86.6808 24.7666 85.5391 24.1992 84.0673 24.1992C82.6092 24.1992 81.4812 24.7666 80.6834 25.9014C79.8856 27.0225 79.4866 28.7656 79.4866 31.1309Z" fill="black"/>
<path d="M105.485 14.3555V19.8106H109.302V24.1582H105.485V35.2325C105.485 36.0528 105.643 36.6407 105.959 36.9961C106.276 37.3516 106.881 37.5293 107.775 37.5293C108.435 37.5293 109.02 37.4815 109.529 37.3858V41.877C108.36 42.2325 107.156 42.4102 105.918 42.4102C101.736 42.4102 99.6042 40.3116 99.5217 36.1143V24.1582H96.2616V19.8106H99.5217V14.3555H105.485Z" fill="black"/>
<path d="M125.561 42C125.286 41.4668 125.086 40.8038 124.963 40.0108C123.518 41.6104 121.641 42.4102 119.33 42.4102C117.143 42.4102 115.327 41.7813 113.882 40.5235C112.452 39.2657 111.737 37.6797 111.737 35.7657C111.737 33.4141 112.61 31.6094 114.357 30.3516C116.118 29.0938 118.656 28.458 121.971 28.4444H124.715V27.1729C124.715 26.1475 124.447 25.3272 123.91 24.7119C123.388 24.0967 122.555 23.7891 121.414 23.7891C120.41 23.7891 119.619 24.0283 119.041 24.5069C118.477 24.9854 118.195 25.6416 118.195 26.4756H112.232C112.232 25.1904 112.631 24.001 113.429 22.9072C114.226 21.8135 115.354 20.959 116.812 20.3438C118.271 19.7149 119.907 19.4004 121.723 19.4004C124.474 19.4004 126.655 20.0908 128.264 21.4717C129.887 22.8389 130.699 24.7666 130.699 27.2549V36.8731C130.712 38.9786 131.008 40.5713 131.586 41.6514V42H125.561ZM120.63 37.878C121.51 37.878 122.322 37.6866 123.064 37.3037C123.807 36.9073 124.357 36.3809 124.715 35.7246V31.9102H122.487C119.502 31.9102 117.913 32.9356 117.72 34.9864L117.7 35.335C117.7 36.0733 117.961 36.6817 118.484 37.1602C119.006 37.6387 119.722 37.878 120.63 37.878Z" fill="black"/>
<path d="M143.388 33.0996L141.242 35.2325V42H135.279V10.5H141.242V27.9522L142.398 26.4756L148.113 19.8106H155.273L147.205 29.0596L155.975 42H149.124L143.388 33.0996Z" fill="black"/>
<path d="M171.223 39.7442C169.751 41.5215 167.715 42.4102 165.115 42.4102C162.722 42.4102 160.892 41.7266 159.627 40.3594C158.375 38.9922 157.735 36.9893 157.708 34.3506V19.8106H163.671V34.1455C163.671 36.4561 164.73 37.6114 166.848 37.6114C168.87 37.6114 170.26 36.9141 171.016 35.5196V19.8106H177V42H171.388L171.223 39.7442Z" fill="black"/>
<path d="M22.6692 42H16.6855V19.8106H22.6692V42ZM16.3347 14.0684C16.3347 13.1797 16.6305 12.4482 17.222 11.874C17.8272 11.2998 18.6457 11.0127 19.6774 11.0127C20.6953 11.0127 21.5068 11.2998 22.1121 11.874C22.7173 12.4482 23.02 13.1797 23.02 14.0684C23.02 14.9707 22.7105 15.709 22.0915 16.2832C21.4862 16.8574 20.6815 17.1445 19.6774 17.1445C18.6732 17.1445 17.8616 16.8574 17.2426 16.2832C16.6374 15.709 16.3347 14.9707 16.3347 14.0684Z" fill="white"/>
<path d="M34.7397 14.3555V19.8106H38.5569V24.1582H34.7397V35.2325C34.7397 36.0528 34.8979 36.6407 35.2143 36.9961C35.5307 37.3516 36.1359 37.5293 37.03 37.5293C37.6903 37.5293 38.2749 37.4815 38.7839 37.3858V41.877C37.6146 42.2325 36.411 42.4102 35.173 42.4102C30.9913 42.4102 28.8592 40.3116 28.7767 36.1143V24.1582H25.5166V19.8106H28.7767V14.3555H34.7397Z" fill="white"/>
</svg>
