<svg width="102" height="32" viewBox="0 0 102 32" fill="none" xmlns="http://www.w3.org/2000/svg">
<rect width="31" height="32" rx="10" fill="#4369EF"/>
<path d="M35.4766 22.3359C35.4766 21.7969 35.6562 21.3594 36.0156 21.0234C36.3828 20.6875 36.8398 20.5195 37.3867 20.5195C37.9414 20.5195 38.3984 20.6875 38.7578 21.0234C39.125 21.3594 39.3086 21.7969 39.3086 22.3359C39.3086 22.8672 39.1289 23.3008 38.7695 23.6367C38.4102 23.9648 37.9492 24.1289 37.3867 24.1289C36.832 24.1289 36.375 23.9648 36.0156 23.6367C35.6562 23.3008 35.4766 22.8672 35.4766 22.3359ZM41.7578 17.543C41.7578 16.2852 42 15.1641 42.4844 14.1797C42.9688 13.1953 43.6641 12.4336 44.5703 11.8945C45.4844 11.3555 46.543 11.0859 47.7461 11.0859C49.457 11.0859 50.8516 11.6094 51.9297 12.6562C53.0156 13.7031 53.6211 15.125 53.7461 16.9219L53.7695 17.7891C53.7695 19.7344 53.2266 21.2969 52.1406 22.4766C51.0547 23.6484 49.5977 24.2344 47.7695 24.2344C45.9414 24.2344 44.4805 23.6484 43.3867 22.4766C42.3008 21.3047 41.7578 19.7109 41.7578 17.6953V17.543ZM45.1445 17.7891C45.1445 18.9922 45.3711 19.9141 45.8242 20.5547C46.2773 21.1875 46.9258 21.5039 47.7695 21.5039C48.5898 21.5039 49.2305 21.1914 49.6914 20.5664C50.1523 19.9336 50.3828 18.9258 50.3828 17.543C50.3828 16.3633 50.1523 15.4492 49.6914 14.8008C49.2305 14.1523 48.582 13.8281 47.7461 13.8281C46.918 13.8281 46.2773 14.1523 45.8242 14.8008C45.3711 15.4414 45.1445 16.4375 45.1445 17.7891ZM59.9102 8.20312V11.3203H62.0781V13.8047H59.9102V20.1328C59.9102 20.6016 60 20.9375 60.1797 21.1406C60.3594 21.3438 60.7031 21.4453 61.2109 21.4453C61.5859 21.4453 61.918 21.418 62.207 21.3633V23.9297C61.543 24.1328 60.8594 24.2344 60.1562 24.2344C57.7812 24.2344 56.5703 23.0352 56.5234 20.6367V13.8047H54.6719V11.3203H56.5234V8.20312H59.9102ZM71.3125 24C71.1562 23.6953 71.043 23.3164 70.9727 22.8633C70.1523 23.7773 69.0859 24.2344 67.7734 24.2344C66.5312 24.2344 65.5 23.875 64.6797 23.1562C63.8672 22.4375 63.4609 21.5312 63.4609 20.4375C63.4609 19.0938 63.957 18.0625 64.9492 17.3438C65.9492 16.625 67.3906 16.2617 69.2734 16.2539H70.832V15.5273C70.832 14.9414 70.6797 14.4727 70.375 14.1211C70.0781 13.7695 69.6055 13.5938 68.957 13.5938C68.3867 13.5938 67.9375 13.7305 67.6094 14.0039C67.2891 14.2773 67.1289 14.6523 67.1289 15.1289H63.7422C63.7422 14.3945 63.9688 13.7148 64.4219 13.0898C64.875 12.4648 65.5156 11.9766 66.3438 11.625C67.1719 11.2656 68.1016 11.0859 69.1328 11.0859C70.6953 11.0859 71.9336 11.4805 72.8477 12.2695C73.7695 13.0508 74.2305 14.1523 74.2305 15.5742V21.0703C74.2383 22.2734 74.4062 23.1836 74.7344 23.8008V24H71.3125ZM68.5117 21.6445C69.0117 21.6445 69.4727 21.5352 69.8945 21.3164C70.3164 21.0898 70.6289 20.7891 70.832 20.4141V18.2344H69.5664C67.8711 18.2344 66.9688 18.8203 66.8594 19.9922L66.8477 20.1914C66.8477 20.6133 66.9961 20.9609 67.293 21.2344C67.5898 21.5078 67.9961 21.6445 68.5117 21.6445ZM81.4375 18.9141L80.2188 20.1328V24H76.832V6H80.2188V15.9727L80.875 15.1289L84.1211 11.3203H88.1875L83.6055 16.6055L88.5859 24H84.6953L81.4375 18.9141ZM97.2461 22.7109C96.4102 23.7266 95.2539 24.2344 93.7773 24.2344C92.418 24.2344 91.3789 23.8438 90.6602 23.0625C89.9492 22.2812 89.5859 21.1367 89.5703 19.6289V11.3203H92.957V19.5117C92.957 20.832 93.5586 21.4922 94.7617 21.4922C95.9102 21.4922 96.6992 21.0938 97.1289 20.2969V11.3203H100.527V24H97.3398L97.2461 22.7109Z" fill="black"/>
<path d="M12.875 24H9.47656V11.3203H12.875V24ZM9.27734 8.03906C9.27734 7.53125 9.44531 7.11328 9.78125 6.78516C10.125 6.45703 10.5898 6.29297 11.1758 6.29297C11.7539 6.29297 12.2148 6.45703 12.5586 6.78516C12.9023 7.11328 13.0742 7.53125 13.0742 8.03906C13.0742 8.55469 12.8984 8.97656 12.5469 9.30469C12.2031 9.63281 11.7461 9.79688 11.1758 9.79688C10.6055 9.79688 10.1445 9.63281 9.79297 9.30469C9.44922 8.97656 9.27734 8.55469 9.27734 8.03906ZM19.7305 8.20312V11.3203H21.8984V13.8047H19.7305V20.1328C19.7305 20.6016 19.8203 20.9375 20 21.1406C20.1797 21.3438 20.5234 21.4453 21.0312 21.4453C21.4062 21.4453 21.7383 21.418 22.0273 21.3633V23.9297C21.3633 24.1328 20.6797 24.2344 19.9766 24.2344C17.6016 24.2344 16.3906 23.0352 16.3438 20.6367V13.8047H14.4922V11.3203H16.3438V8.20312H19.7305Z" fill="white"/>
</svg>
